<svg xmlns="http://www.w3.org/2000/svg" viewBox="0 0 27 27"><path d="M1 1h7v7h-7zM9 1h1v1h-1zM11 1h1v2h-2v-1h1zM13 1h1v1h1v-1h1v2h-1v1h1v4h1v-1h1v3h-1v-1h-1v1h-1v1h-1v-2h1v-4h-1v1h-1v-2h-1v-1h1zM19 1h7v7h-7zM2 2v5h5v-5zM17 2h1v2h-1zM20 2v5h5v-5zM3 3h3v3h-3zM9 3h1v1h-1zM21 3h3v3h-3zM10 4h2v1h-1v1h-1zM9 6h1v2h-1zM12 6h1v1h-1zM11 7h1v3h1v1h-1v1h1v1h-2v4h-2v-1h1v-1h-2v-1h1v-1h1v-2h1v-2h-1v-1h1zM13 7h1v1h-1zM1 9h1v2h-1zM3 9h1v1h2v1h-2v1h-1zM7 9h2v1h-2zM20 9h1v2h-2v-1h1zM23 9h1v1h-1zM25 9h1v3h-1v-1h-1v-1h1zM16 10h1v2h-1zM22 10h1v1h1v1h-1v1h-2v-2h1zM6 11h2v1h-1v1h-1zM13 11h1v1h-1zM2 12h1v1h-1zM4 12h1v1h-1zM14 12h1v2h-1v1h2v-2h1v-1h3v2h1v1h-1v1h-1v-1h-1v1h-1v1h1v-1h1v1h1v-1h2v-1h2v1h-1v1h-1v6h1v1h-1v1h-2v-2h1v-1h-2v1h-1v-1h-1v1h-1v-3h1v-2h-1v1h-2v-2h1v-1h-1v1h-2v-1h1v-3h1zM1 13h1v1h-1zM3 13h1v1h-1zM7 13h1v1h-1zM18 13v1h1v-1zM25 13h1v3h-1v-1h-1v-1h1zM5 14h2v1h1v1h-1v1h-1v1h-1v-2h1v-1h-1zM1 15h2v1h-2zM3 16h1v1h-1zM1 17h2v1h-2zM7 17h1v1h-1zM11 17h1v2h-2v1h-1v-2h2zM24 17h1v1h-1zM18 18v3h3v-3zM25 18h1v4h-1v1h1v1h-2v-1h-1v-1h1v-2h1zM1 19h7v7h-7zM12 19h1v1h-1zM19 19h1v1h-1zM2 20v5h5v-5zM10 20h2v1h2v-1h1v2h-1v1h2v1h1v-1h1v1h1v1h1v1h-3v-1h-1v1h-2v-1h1v-1h-1v1h-2v1h-1v-1h-1v-1h3v-2h-2v-1h-1zM3 21h3v3h-3zM9 23h1v1h-1zM9 25h1v1h-1zM22 25h1v1h-1zM25 25h1v1h-1z"/></svg>